<svg width="30" height="31" viewBox="0 0 30 31" fill="none" xmlns="http://www.w3.org/2000/svg">
  <path d="M29.0611 11.778C28.9595 11.2483 28.8231 10.7265 28.6526 10.216C28.2433 8.98113 27.6748 7.80862 26.9623 6.72998C26.6065 6.20422 26.2175 5.70314 25.7979 5.22998C24.4925 3.66096 22.8832 2.39046 21.0734 1.49998C20.5169 1.1983 19.9316 0.956681 19.3269 0.778978C18.1211 0.354934 16.8622 0.112763 15.5892 0.0599784C15.341 0.00805536 15.0874 -0.0120969 14.8343 -2.16058e-05C14.561 -0.0099537 14.2875 0.0101599 14.0183 0.0599784C12.7472 0.113983 11.4903 0.356821 10.2865 0.780978C9.68529 0.969196 9.10094 1.21042 8.53991 1.50198C6.72999 2.36418 5.11908 3.61393 3.81449 5.16798C3.40599 5.64898 2.99846 6.18998 2.65012 6.66798C1.9563 7.70662 1.40634 8.83985 1.01611 10.035C0.833923 10.5478 0.678133 11.0702 0.549391 11.6C0.365876 12.7311 0.268548 13.8752 0.258297 15.022C0.248687 15.2639 0.268243 15.5061 0.316516 15.743C0.343064 16.3866 0.401358 17.0284 0.491172 17.666C0.783782 19.4306 1.39603 21.1227 2.29595 22.654C2.60502 23.2216 2.95601 23.7639 3.34583 24.276C4.1257 25.3292 5.04968 26.2602 6.0889 27.04C6.49741 27.34 6.96219 27.701 7.37166 27.94C8.47092 28.6063 9.6458 29.1303 10.8696 29.5C11.4518 29.68 12.0942 29.8 12.6773 29.921C13.3905 30.0406 14.1118 30.1008 14.8343 30.101C15.5956 30.1031 16.3558 30.0429 17.1078 29.921C17.7175 29.8158 18.3211 29.6753 18.9155 29.5C20.1456 29.1203 21.3218 28.5749 22.4134 27.878C22.8802 27.578 23.2867 27.278 23.6962 26.978C24.6893 26.1648 25.5891 25.2375 26.3781 24.214C26.7284 23.673 27.0777 23.192 27.428 22.592C28.2572 21.081 28.8292 19.4349 29.1193 17.725C29.2379 17.0913 29.2964 16.4473 29.2939 15.802C29.2939 15.562 29.3521 15.321 29.3521 15.081C29.4081 13.9713 29.3101 12.8591 29.0611 11.778ZM19.616 2.58398C21.8181 3.49395 23.7343 5.01145 25.1546 6.96998L23.3517 12.018L20.4408 12.979L15.5892 9.37398V5.58798L19.616 2.58398ZM19.3832 14.184L17.6366 19.712H12.0359L10.2894 14.184L14.8372 10.759L19.3851 14.184H19.3832ZM14.0193 1.68398C14.3104 1.68398 14.5442 1.62398 14.8353 1.62398C15.1086 1.61405 15.3822 1.63416 15.6513 1.68398C16.3577 1.72487 17.0596 1.82521 17.7501 1.98398L15.6513 3.54498L14.8353 4.14498L14.0193 3.54498L11.9195 1.98298C12.61 1.82421 13.3119 1.72387 14.0183 1.68298L14.0193 1.68398ZM10.0546 2.58398L14.0775 5.58398V9.37398L9.29579 12.979L6.32178 11.958L4.51506 7.02998C5.9169 5.03672 7.83931 3.49488 10.0585 2.58398H10.0546ZM2.12421 12.2C2.24342 11.6683 2.39807 11.1457 2.58705 10.636C2.81992 9.97498 3.11199 9.31398 3.40308 8.65298L4.33555 11.237L4.68583 12.137L3.8698 12.798L1.89133 14.421C1.90818 13.6752 1.98608 12.9322 2.12421 12.2ZM1.89133 16.466L5.62218 13.4L8.71263 14.482L10.5785 20.371L9.17935 22.413L4.10656 22.593C2.92705 20.7497 2.16956 18.6543 1.89133 16.465V16.466ZM8.24688 26.566C7.78016 26.266 7.3736 25.966 6.90591 25.666C6.33463 25.198 5.78942 24.6972 5.27287 24.166L7.95482 24.046L8.8281 23.986L9.17935 25L10.0526 27.4C9.42411 27.1844 8.8187 26.9029 8.24591 26.56L8.24688 26.566ZM17.7511 28.066C16.7986 28.3075 15.8211 28.4288 14.8402 28.427C13.9004 28.4163 12.9636 28.3159 12.0418 28.127L10.4087 23.44L11.8642 21.277H17.8112L19.3269 23.377L17.7511 28.066ZM22.8239 25.542C22.4244 25.8824 21.9949 26.1837 21.5411 26.442C20.9357 26.8336 20.2904 27.1559 19.617 27.403L20.433 24.939L20.7833 23.917H21.6566L24.3385 23.977C23.9244 24.5835 23.4117 25.1116 22.8229 25.538L22.8239 25.542ZM25.6223 22.477L20.4913 22.357L19.0358 20.374L20.8435 14.545L23.9921 13.523L27.6657 16.523C27.5281 18.6623 26.8207 20.7211 25.6213 22.473L25.6223 22.477ZM25.8551 12.863L24.9819 12.142L25.273 11.361L26.2646 8.66098C26.6041 9.31889 26.896 10.0017 27.1379 10.704C27.3011 11.2167 27.4375 11.7381 27.5464 12.266C27.6847 12.9787 27.7626 13.7024 27.7793 14.429L25.8551 12.863Z" fill="#6A7787"/>
</svg>
